<?xml version='1.0' encoding='UTF-8' standalone='no'?>
<!-- Created with Fritzing (https://fritzing.org/) -->
<svg xmlns="http://www.w3.org/2000/svg" baseProfile="tiny" height="3.33718in" version="1.2" viewBox="0 0 357.331 240.277" width="4.96293in" x="0in"  xmlns:svg="http://www.w3.org/2000/svg" y="0in">
 <g id="watermark" >
  <g >
   <g >
    <path d="M332.599,234.077c-0.604,0,-1.131,0.325,-1.422,0.809l-2.796,0l3.96,-4.071c0.146,-0.146,0.289,-0.322,0.428,-0.521c0.149,-0.222,0.228,-0.479,0.228,-0.768c0,-0.279,-0.097,-0.518,-0.287,-0.71c-0.19,-0.188,-0.444,-0.287,-0.754,-0.287l-4.636,0c-0.305,0,-0.555,0.06,-0.742,0.17c-0.219,0.13,-0.33,0.368,-0.33,0.707c0,0.329,0.111,0.562,0.33,0.692c0.188,0.111,0.438,0.168,0.742,0.168l3.148,0l-3.974,4.086c-0.146,0.147,-0.289,0.315,-0.425,0.504c-0.153,0.212,-0.23,0.472,-0.23,0.771c0,0.28,0.096,0.521,0.288,0.711c0.188,0.188,0.442,0.285,0.754,0.285l4.315,0c0.293,0.467,0.812,0.776,1.4,0.776c0.916,0,1.66,-0.744,1.66,-1.661C334.258,234.822,333.513,234.077,332.599,234.077zM332.599,236.34c-0.334,0,-0.604,-0.271,-0.604,-0.604c0,-0.333,0.27,-0.604,0.604,-0.604c0.332,0,0.604,0.271,0.604,0.604C333.202,236.071,332.931,236.34,332.599,236.34z" fill="#8C8C8C" />
    <path d="M315.656,224.035c-0.914,0,-1.659,0.745,-1.659,1.66c0,0.916,0.745,1.66,1.659,1.66s1.658,-0.744,1.658,-1.66C317.316,224.78,316.572,224.035,315.656,224.035zM315.657,226.298c-0.333,0,-0.604,-0.27,-0.604,-0.603s0.271,-0.603,0.604,-0.603c0.331,0,0.604,0.27,0.604,0.603S315.988,226.298,315.657,226.298z" fill="#8C8C8C" />
    <path d="M324.177,228.697c-0.193,-0.111,-0.439,-0.169,-0.732,-0.169l-1.465,0L321.98,226.006c0,-0.292,-0.057,-0.538,-0.166,-0.729C321.724,225.12,321.531,224.935,321.121,224.935c-0.34,0,-0.578,0.116,-0.709,0.342c-0.109,0.193,-0.167,0.438,-0.167,0.729l0,2.521l-0.481,0c-0.295,0,-0.539,0.06,-0.731,0.169c-0.228,0.129,-0.341,0.368,-0.341,0.708c0,0.412,0.185,0.603,0.341,0.692c0.192,0.111,0.438,0.168,0.731,0.168l0.481,0l0,4.362c0,0.277,0.026,0.533,0.081,0.768c0.056,0.246,0.154,0.464,0.298,0.645c0.146,0.186,0.345,0.332,0.595,0.436c0.241,0.098,0.555,0.146,0.93,0.146l0.896,0c0.292,0,0.539,-0.054,0.731,-0.166c0.154,-0.089,0.341,-0.281,0.341,-0.693c0,-0.338,-0.114,-0.578,-0.341,-0.709c-0.192,-0.109,-0.439,-0.168,-0.731,-0.168l-0.821,0c-0.138,0,-0.19,-0.019,-0.207,-0.024c-0.014,-0.034,-0.035,-0.103,-0.035,-0.231L321.982,230.265l1.465,0c0.295,0,0.541,-0.057,0.734,-0.168c0.152,-0.09,0.34,-0.28,0.34,-0.692C324.517,229.065,324.404,228.826,324.177,228.697z" fill="#8C8C8C" />
    <path d="M315.722,228.527l-1.191,0c-0.292,0,-0.538,0.059,-0.731,0.169c-0.226,0.129,-0.341,0.368,-0.341,0.708c0,0.412,0.188,0.604,0.341,0.691c0.193,0.113,0.439,0.168,0.731,0.168l0.544,0l0,5.362c0,0.293,0.057,0.539,0.167,0.73c0.131,0.227,0.367,0.341,0.708,0.341c0.411,0,0.604,-0.187,0.692,-0.341c0.111,-0.191,0.168,-0.438,0.168,-0.73L316.81,229.615c0,-0.386,-0.084,-0.656,-0.256,-0.83C316.379,228.613,316.109,228.527,315.722,228.527z" fill="#8C8C8C" />
    <path d="M311.887,228.697c-0.193,-0.111,-0.44,-0.169,-0.732,-0.169l-0.604,0c-0.25,0,-0.498,0.063,-0.734,0.187c-0.226,0.119,-0.433,0.271,-0.616,0.453l-0.644,0.604l0,-0.247c0,-0.291,-0.055,-0.538,-0.168,-0.729c-0.128,-0.228,-0.368,-0.34,-0.707,-0.34c-0.41,0,-0.604,0.184,-0.693,0.34c-0.11,0.191,-0.167,0.438,-0.167,0.729l0,4.801c-0.475,0.293,-0.791,0.816,-0.791,1.412c0,0.917,0.745,1.661,1.658,1.661c0.916,0,1.66,-0.744,1.66,-1.661c0,-0.596,-0.317,-1.119,-0.792,-1.412l0,-2.21l1.738,-1.564c0.1,-0.09,0.199,-0.164,0.297,-0.217c0.084,-0.045,0.174,-0.067,0.274,-0.067l0.288,0c0.292,0,0.539,-0.056,0.732,-0.169c0.155,-0.088,0.339,-0.279,0.339,-0.691C312.227,229.065,312.112,228.826,311.887,228.697zM307.688,236.34c-0.332,0,-0.603,-0.271,-0.603,-0.604c0,-0.333,0.271,-0.604,0.603,-0.604c0.333,0,0.604,0.271,0.604,0.604C308.292,236.071,308.021,236.34,307.688,236.34z" fill="#8C8C8C" />
    <path d="M305.171,225.178c-0.193,-0.111,-0.44,-0.167,-0.731,-0.167l-0.59,0c-0.2,0,-0.389,0.004,-0.562,0.016c-0.176,0.009,-0.345,0.035,-0.506,0.07c-0.168,0.041,-0.336,0.109,-0.496,0.202c-0.158,0.093,-0.319,0.222,-0.48,0.382c-0.334,0.314,-0.554,0.656,-0.652,1.017c-0.094,0.348,-0.143,0.735,-0.143,1.151l0,0.678l-0.483,0c-0.292,0,-0.539,0.059,-0.73,0.169c-0.227,0.13,-0.342,0.369,-0.342,0.708c0,0.412,0.185,0.604,0.341,0.693c0.191,0.111,0.438,0.166,0.73,0.166l0.483,0l0,5.362c0,0.293,0.057,0.539,0.167,0.73c0.13,0.227,0.367,0.341,0.708,0.341c0.411,0,0.603,-0.187,0.692,-0.341c0.111,-0.191,0.168,-0.438,0.168,-0.73l0,-5.36l0.92,0c0.293,0,0.54,-0.057,0.732,-0.168c0.155,-0.09,0.34,-0.28,0.34,-0.692c0,-0.34,-0.114,-0.579,-0.34,-0.708c-0.189,-0.111,-0.436,-0.17,-0.729,-0.17l-0.92,0l0,-0.678c0,-0.218,0.019,-0.41,0.056,-0.571c0.032,-0.141,0.103,-0.261,0.218,-0.367l0.002,-0.004l0.002,-0.002c0.082,-0.082,0.176,-0.126,0.29,-0.136c0.15,-0.015,0.339,-0.022,0.564,-0.022l0.56,0c0.291,0,0.539,-0.058,0.731,-0.168c0.154,-0.088,0.339,-0.281,0.339,-0.693C305.511,225.547,305.396,225.308,305.171,225.178z" fill="#8C8C8C" />
    <path d="M357.164,228.795c-0.089,-0.156,-0.282,-0.34,-0.693,-0.34c-0.339,0,-0.578,0.113,-0.707,0.34c-0.078,0.133,-0.127,0.293,-0.152,0.477l-0.021,-0.021c-0.216,-0.236,-0.466,-0.42,-0.747,-0.539c-0.277,-0.119,-0.563,-0.183,-0.849,-0.183l-0.709,0c-0.249,0,-0.466,0.015,-0.64,0.041c-0.182,0.026,-0.352,0.074,-0.51,0.14c-0.158,0.066,-0.313,0.15,-0.459,0.254c-0.139,0.097,-0.303,0.226,-0.486,0.377c-0.188,0.156,-0.342,0.302,-0.463,0.434c-0.127,0.141,-0.23,0.293,-0.306,0.455c-0.069,0.16,-0.122,0.337,-0.147,0.523c-0.026,0.178,-0.041,0.391,-0.041,0.631l0,2.386c0,0.24,0.015,0.451,0.041,0.631c0.025,0.188,0.078,0.361,0.147,0.521c0.074,0.164,0.179,0.318,0.306,0.457c0.119,0.129,0.274,0.274,0.463,0.433c0.186,0.153,0.35,0.28,0.486,0.379c0.146,0.103,0.299,0.188,0.459,0.254c0.158,0.065,0.329,0.112,0.51,0.14c0.174,0.026,0.389,0.039,0.64,0.039l0.709,0c0.298,0,0.591,-0.066,0.87,-0.199c0.244,-0.114,0.492,-0.291,0.73,-0.523l0,1.434c0,0.18,-0.025,0.334,-0.072,0.465c-0.043,0.119,-0.159,0.258,-0.344,0.406c-0.154,0.127,-0.309,0.217,-0.457,0.264c-0.15,0.049,-0.341,0.074,-0.563,0.074l-2.203,0c-0.293,0,-0.538,0.055,-0.732,0.166c-0.152,0.088,-0.34,0.282,-0.34,0.692c0,0.341,0.115,0.579,0.34,0.71c0.194,0.109,0.439,0.167,0.732,0.167l2.326,0c0.247,0,0.463,-0.015,0.638,-0.041c0.179,-0.026,0.351,-0.073,0.513,-0.14c0.153,-0.064,0.31,-0.15,0.455,-0.254c0.143,-0.101,0.305,-0.227,0.487,-0.379c0.185,-0.153,0.343,-0.299,0.463,-0.431c0.128,-0.141,0.229,-0.294,0.304,-0.456c0.071,-0.162,0.123,-0.338,0.148,-0.523c0.025,-0.182,0.041,-0.393,0.041,-0.631l0,-7.898C357.331,229.233,357.277,228.986,357.164,228.795zM355.595,233.255c0,0.188,-0.062,0.35,-0.188,0.49c-0.15,0.172,-0.394,0.403,-0.716,0.686l-0.002,0.003l-0.002,0.004c-0.139,0.13,-0.291,0.237,-0.453,0.325c-0.148,0.082,-0.325,0.121,-0.526,0.121L353.407,234.884c-0.222,0,-0.41,-0.021,-0.563,-0.072c-0.148,-0.049,-0.301,-0.137,-0.453,-0.264c-0.231,-0.186,-0.315,-0.322,-0.346,-0.404c-0.049,-0.131,-0.072,-0.285,-0.072,-0.465l0,-2.206c0,-0.18,0.023,-0.336,0.072,-0.467c0.029,-0.082,0.113,-0.217,0.346,-0.403c0.152,-0.127,0.305,-0.216,0.453,-0.265c0.153,-0.049,0.342,-0.072,0.563,-0.072l0.301,0c0.212,0,0.388,0.037,0.526,0.113c0.152,0.082,0.308,0.191,0.457,0.324c0.322,0.293,0.564,0.529,0.716,0.7c0.128,0.146,0.188,0.304,0.188,0.492L355.595,233.255z" fill="#8C8C8C" />
    <path d="M337.185,224.035c-0.914,0,-1.66,0.745,-1.66,1.66c0,0.916,0.746,1.66,1.66,1.66s1.66,-0.744,1.66,-1.66C338.845,224.78,338.099,224.035,337.185,224.035zM337.185,226.298c-0.332,0,-0.604,-0.27,-0.604,-0.603s0.271,-0.603,0.604,-0.603s0.604,0.27,0.604,0.603C337.789,226.028,337.517,226.298,337.185,226.298z" fill="#8C8C8C" />
    <path d="M347.871,234.303l-0.107,-3.419c-0.011,-0.178,-0.021,-0.338,-0.031,-0.489c-0.01,-0.162,-0.037,-0.322,-0.082,-0.476c-0.045,-0.158,-0.11,-0.309,-0.198,-0.453c-0.093,-0.146,-0.216,-0.289,-0.37,-0.42c-0.225,-0.192,-0.443,-0.334,-0.646,-0.416c-0.207,-0.084,-0.461,-0.127,-0.754,-0.127l-1.012,0c-0.259,0,-0.501,0.058,-0.716,0.164c-0.197,0.098,-0.39,0.203,-0.572,0.315l-0.003,0.002l-0.003,0.003l-0.837,0.555l0,-0.041c0,-0.291,-0.057,-0.539,-0.168,-0.733c-0.129,-0.226,-0.367,-0.339,-0.707,-0.339c-0.411,0,-0.604,0.185,-0.693,0.339c-0.109,0.194,-0.168,0.438,-0.168,0.733l0,6.099c0,0.295,0.059,0.539,0.168,0.734c0.09,0.153,0.282,0.338,0.693,0.338c0.34,0,0.578,-0.114,0.707,-0.338c0.111,-0.195,0.168,-0.439,0.168,-0.734L342.54,231.565l1.953,-1.215c0.04,-0.024,0.082,-0.048,0.121,-0.063c0.031,-0.016,0.07,-0.025,0.115,-0.031c0.049,-0.012,0.117,-0.016,0.195,-0.016l0.362,0c0.188,0,0.334,0.021,0.435,0.059c0.082,0.029,0.143,0.076,0.18,0.143c0.05,0.078,0.08,0.18,0.098,0.303c0.02,0.139,0.034,0.309,0.045,0.504l0.096,3.097c-0.457,0.297,-0.762,0.811,-0.762,1.394c0,0.917,0.746,1.661,1.66,1.661c0.916,0,1.66,-0.744,1.66,-1.661C348.697,235.128,348.364,234.59,347.871,234.303zM347.037,236.34c-0.334,0,-0.602,-0.271,-0.602,-0.604c0,-0.333,0.268,-0.604,0.602,-0.604c0.333,0,0.604,0.271,0.604,0.604C347.642,236.071,347.37,236.34,347.037,236.34z" fill="#8C8C8C" />
    <path d="M337.248,228.527l-1.193,0c-0.293,0,-0.539,0.059,-0.731,0.169c-0.226,0.129,-0.341,0.368,-0.341,0.708c0,0.412,0.186,0.604,0.341,0.691c0.192,0.113,0.438,0.168,0.731,0.168l0.545,0l0,5.362c0,0.293,0.055,0.539,0.168,0.73c0.127,0.227,0.365,0.341,0.707,0.341c0.41,0,0.604,-0.187,0.691,-0.341c0.111,-0.191,0.17,-0.438,0.17,-0.73L338.336,229.615c0,-0.386,-0.085,-0.656,-0.259,-0.83C337.905,228.613,337.632,228.527,337.248,228.527z" fill="#8C8C8C" />
   </g>
  </g>
 </g>
 <g partID="98860">
  <g transform="translate(215.842,166.484)">
   <g transform="matrix(0,1,-1,0,0,0)">
    <g transform="matrix(1, 0, 0, 1, 0.349999, -7.344)">
     <g id="schematic">
      <g gorn="0.3.0.0.0">
       <rect class="interior rect" fill="#ffffff" gorn="0.3.0.0.0.0" height="63.756" id="rect15332" stroke="#000000" stroke-width="0.9" style="stroke-linecap:round" width="35.1" x="14.85" y="7.794"/>
       <line class="pin" fill="none" gorn="0.3.0.0.0.1" id="connector3pin" stroke="#787878" stroke-width="0.699999" style="stroke-linecap:round" x1="0.349999" x2="14.75" y1="36" y2="36"/>
       <g class="terminal" fill="none" gorn="0.3.0.0.0.2" height="0.0014" id="connector3terminal" stroke="none" stroke-width="0" width="0.0302" x="-0.0151" y="35.9994"/>
       <text class="text" fill="#8c8c8c" font-size="3.49999" gorn="0.3.0.0.0.3" id="text15343" stroke="none" stroke-width="0" style="font-family:Droid Sans;text-anchor:start;" x="16.15" y="36.6999">SDA</text>
       <line class="pin" fill="none" gorn="0.3.0.0.0.4" id="connector4pin" stroke="#787878" stroke-width="0.699999" style="stroke-linecap:round" x1="0.349999" x2="14.75" y1="43.2" y2="43.2"/>
       <g class="terminal" fill="none" gorn="0.3.0.0.0.5" height="0.0014" id="connector4terminal" stroke="none" stroke-width="0" width="0.0302" x="-0.0151" y="43.1994"/>
       <text class="text" fill="#8c8c8c" font-size="3.49999" gorn="0.3.0.0.0.6" id="text15347" stroke="none" stroke-width="0" style="font-family:Droid Sans;text-anchor:start;" x="16.15" y="43.8999">XDA</text>
       <g fill="#000000" fill-opacity="1" font-size="4.25" gorn="0.3.0.0.0.7" id="text15964" stroke="none" stroke-width="0.75" style="font-style:normal;font-variant:normal;font-weight:normal;font-stretch:normal;line-height:1.25;font-family:Droid Sans;-inkscape-font-specification:Droid Sans;text-align:center;letter-spacing:0;word-spacing:0;text-anchor:middle;" xml:space="preserve" xmlns:xml="http://www.w3.org/XML/1998/namespace">
        <text font-size="4.25" gorn="0.3.0.0.0.7.0" id="tspan15962" stroke-width="0.75" style="font-style:normal;font-variant:normal;font-weight:normal;font-stretch:normal;font-family:Droid Sans;-inkscape-font-specification:Droid Sans;text-align:center;text-anchor:middle;" x="32.399" y="31.9554">MPU</text>
        <text font-size="4.25" gorn="0.3.0.0.0.7.1" id="tspan15966" stroke-width="0.75" style="font-style:normal;font-variant:normal;font-weight:normal;font-stretch:normal;font-family:Droid Sans;-inkscape-font-specification:Droid Sans;text-align:center;text-anchor:middle;" x="32.399" y="37.2679">6050</text>
        <text font-size="4.25" gorn="0.3.0.0.0.7.2" id="tspan15968" stroke-width="0.75" style="font-style:normal;font-variant:normal;font-weight:normal;font-stretch:normal;font-family:Droid Sans;-inkscape-font-specification:Droid Sans;text-align:center;text-anchor:middle;" x="32.399" y="42.5804">(GY-521)</text>
       </g>
       <line class="pin" fill="none" gorn="0.3.0.0.0.8" id="connector2pin" stroke="#787878" stroke-width="0.699999" style="stroke-linecap:round" x1="0.349999" x2="14.75" y1="28.7859" y2="28.7859"/>
       <g class="terminal" fill="none" gorn="0.3.0.0.0.9" height="0.0014" id="connector2terminal" stroke="none" stroke-width="0" width="0.0302" x="-0.0151" y="28.7853"/>
       <text class="text" fill="#8c8c8c" font-size="3.49999" gorn="0.3.0.0.0.10" id="text15983" stroke="none" stroke-width="0" style="font-family:Droid Sans;text-anchor:start;" x="16.15" y="29.4858">SCL</text>
       <line class="pin" fill="none" gorn="0.3.0.0.0.11" id="connector1pin" stroke="#787878" stroke-width="0.699999" style="stroke-linecap:round" x1="0.349999" x2="14.75" y1="21.5859" y2="21.5859"/>
       <g class="terminal" fill="none" gorn="0.3.0.0.0.12" height="0.0014" id="connector1terminal" stroke="none" stroke-width="0" width="0.0302" x="-0.0151" y="21.5853"/>
       <text class="text" fill="#8c8c8c" font-size="3.49999" gorn="0.3.0.0.0.13" id="text15989" stroke="none" stroke-width="0" style="font-family:Droid Sans;text-anchor:start;" x="16.15" y="22.2858">GND</text>
       <line class="pin" fill="none" gorn="0.3.0.0.0.14" id="connector5pin" stroke="#787878" stroke-width="0.699999" style="stroke-linecap:round" x1="0.349999" x2="14.75" y1="50.4201" y2="50.4201"/>
       <g class="terminal" fill="none" gorn="0.3.0.0.0.15" height="0.0014" id="connector5terminal" stroke="none" stroke-width="0" width="0.0302" x="-0.0151" y="50.4196"/>
       <text class="text" fill="#8c8c8c" font-size="3.49999" gorn="0.3.0.0.0.16" id="text15995" stroke="none" stroke-width="0" style="font-family:Droid Sans;text-anchor:start;" x="16.15" y="51.12">XCL</text>
       <line class="pin" fill="none" gorn="0.3.0.0.0.17" id="connector6pin" stroke="#787878" stroke-width="0.699999" style="stroke-linecap:round" x1="0.349999" x2="14.75" y1="57.6201" y2="57.6201"/>
       <g class="terminal" fill="none" gorn="0.3.0.0.0.18" height="0.0014" id="connector6terminal" stroke="none" stroke-width="0" width="0.0302" x="-0.0151" y="57.6196"/>
       <text class="text" fill="#8c8c8c" font-size="3.49999" gorn="0.3.0.0.0.19" id="text16001" stroke="none" stroke-width="0" style="font-family:Droid Sans;text-anchor:start;" x="16.15" y="58.32">AD0</text>
       <line class="pin" fill="none" gorn="0.3.0.0.0.20" id="connector0pin" stroke="#787878" stroke-width="0.699999" style="stroke-linecap:round" x1="0.349999" x2="14.75" y1="14.3859" y2="14.3859"/>
       <g class="terminal" fill="none" gorn="0.3.0.0.0.21" height="0.0014" id="connector0terminal" stroke="none" stroke-width="0" width="0.0302" x="-0.0151" y="14.3853"/>
       <text class="text" fill="#8c8c8c" font-size="3.49999" gorn="0.3.0.0.0.22" id="text16013" stroke="none" stroke-width="0" style="font-family:Droid Sans;text-anchor:start;" x="16.15" y="15.0858">VCC</text>
       <line class="pin" fill="none" gorn="0.3.0.0.0.23" id="connector7pin" stroke="#787878" stroke-width="0.699999" style="stroke-linecap:round" x1="0.349999" x2="14.75" y1="64.7859" y2="64.7859"/>
       <g class="terminal" fill="none" gorn="0.3.0.0.0.24" height="0.0014" id="connector7terminal" stroke="none" stroke-width="0" width="0.0302" x="-0.0151" y="64.7853"/>
       <text class="text" fill="#8c8c8c" font-size="3.49999" gorn="0.3.0.0.0.25" id="text16040" stroke="none" stroke-width="0" style="font-family:Droid Sans;text-anchor:start;" x="16.15" y="65.4858">INT</text>
      </g>
     </g>
    </g>
   </g>
  </g>
 </g>
 <g partID="99310">
  <g transform="translate(273.431,123.634)">
   <g id="schematic" >
    <rect fill="none" height="0.677" id="connector0pin" width="4.063"  y="28.461"/>
    <rect fill="none" height="0.677" id="connector1pin" width="4.063"  y="14.062"/>
    <rect fill="none" height="0.677" id="connector2pin" width="4.063"  y="21.262"/>
    <g fill="none" height="0.677" id="connector0terminal" width="0.338"  y="28.461"/>
    <g fill="none" height="0.677" id="connector1terminal" width="0.338"  y="14.062"/>
    <g fill="none" height="0.677" id="connector2terminal" width="0.338"  y="21.262"/>
    <g id="Diagram" >
     <rect fill="none" height="28.8" stroke="#000000" stroke-linecap="round" stroke-linejoin="round" stroke-width="0.9" width="28.8" x="7.2"  y="7.2"/>
     <line fill="none" stroke="#787878" stroke-linecap="round" stroke-linejoin="round" stroke-width="0.7" x1="7.2" x2="0"  y1="28.8" y2="28.8"/>
     <line fill="none" stroke="#787878" stroke-linecap="round" stroke-linejoin="round" stroke-width="0.7" x1="0" x2="7.2"  y1="14.4" y2="14.4"/>
     <line fill="none" stroke="#787878" stroke-linecap="round" stroke-linejoin="round" stroke-width="0.7" x1="0" x2="7.2"  y1="21.6" y2="21.6"/>
     <g >
      <path d="M46.091,15.05c-0.469,-1.065,-1.604,-1.63,-2.701,-1.424l0,0l-12.355,1.986l0.002,0.004c-0.513,0.071,-1.023,0.209,-1.521,0.427c-2.91,1.278,-4.233,4.675,-2.955,7.585c1.277,2.911,4.674,4.233,7.584,2.956c0.498,-0.219,0.944,-0.503,1.344,-0.832l0.002,0.004l9.823,-7.753l-0.001,-0.001C46.206,17.333,46.559,16.116,46.091,15.05z" fill="#FFFFFF" stroke="#000000" stroke-linecap="round" stroke-linejoin="round" stroke-width="0.9" />
      <circle cx="31.83" cy="21.313" fill="none" r="3.301" stroke="#000000" stroke-linecap="round" stroke-linejoin="round" stroke-width="0.9" />
      <circle cx="43.843" cy="16.037" fill="#FFFFFF" r="1.051" stroke="#000000" stroke-linecap="round" stroke-linejoin="round" stroke-width="0.9" />
     </g>
    </g>
   </g>
  </g>
 </g>
 <g partID="103370">
  <g transform="translate(122.186,106.534)">
   <g transform="matrix(0,1,1,0,0,0)">
    <g id="schematic">
     <g>
      <path d="M13.5,14.966L9.9,14.966c-0.193,0,-0.35,-0.156,-0.35,-0.35s0.156,-0.35,0.35,-0.35L13.5,14.266c0.193,0,0.35,0.156,0.35,0.35S13.694,14.966,13.5,14.966z"/>
     </g>
     <g>
      <path d="M9.9,14.966L6.3,14.966c-0.193,0,-0.35,-0.156,-0.35,-0.35s0.157,-0.35,0.35,-0.35l3.6,0c0.193,0,0.35,0.156,0.35,0.35S10.093,14.966,9.9,14.966z"/>
     </g>
     <g>
      <polygon fill="#FFFFFF" points="9.9,14.616,6.3,7.416,9.9,7.416,13.5,7.416"/>
      <path d="M9.9,15.398L5.734,7.066l8.333,0L9.9,15.398zM6.866,7.766L9.9,13.834l3.034,-6.068L6.866,7.766z"/>
     </g>
     <g>
      <path d="M9.9,14.841c-0.124,0,-0.225,-0.101,-0.225,-0.225l0,-7.2c0,-0.124,0.101,-0.225,0.225,-0.225s0.225,0.101,0.225,0.225l0,7.2C10.124,14.74,10.024,14.841,9.9,14.841z"/>
     </g>
     <g>
      <path d="M1.8,12.141c-0.058,0,-0.115,-0.021,-0.159,-0.065c-0.088,-0.088,-0.088,-0.23,0,-0.318l2.34,-2.341c0.088,-0.088,0.23,-0.088,0.318,0s0.088,0.23,0,0.318l-2.34,2.341C1.915,12.12,1.858,12.141,1.8,12.141z"/>
     </g>
     <g>
      <path d="M2.16,15.381c-0.058,0,-0.115,-0.021,-0.159,-0.065c-0.088,-0.088,-0.088,-0.23,0,-0.318l2.34,-2.34c0.088,-0.088,0.23,-0.088,0.318,0s0.088,0.23,0,0.318l-2.34,2.34C2.276,15.359,2.218,15.381,2.16,15.381z"/>
     </g>
     <g id="connector0pin">
      <path d="M9.9,22.166c-0.193,0,-0.35,-0.156,-0.35,-0.35l0,-7.2c0,-0.193,0.156,-0.35,0.35,-0.35s0.35,0.156,0.35,0.35l0,7.2C10.249,22.01,10.093,22.166,9.9,22.166z" fill="#787878"/>
     </g>
     <g id="connector0terminal">
      <rect fill="none" height="0.001" width="0.001" x="9.9" y="21.816"/>
     </g>
     <g transform="matrix(1, 0, 0, 1, 3.429, 6.4262)">
      <g>
       <g transform="rotate(270)">
        <g>
         <g enable-background="new    ">
          <path d="M-11.647,5.54l-0.891,0L-12.538,5.388l0.342,-0.372c0.049,-0.053,0.093,-0.101,0.131,-0.145s0.071,-0.086,0.099,-0.128c0.026,-0.042,0.047,-0.084,0.062,-0.125c0.015,-0.043,0.021,-0.088,0.021,-0.138c0,-0.038,-0.005,-0.072,-0.017,-0.102s-0.027,-0.054,-0.047,-0.075c-0.021,-0.02,-0.045,-0.035,-0.073,-0.046s-0.06,-0.016,-0.094,-0.016c-0.062,0,-0.118,0.013,-0.167,0.038c-0.051,0.024,-0.098,0.057,-0.143,0.096l-0.1,-0.116c0.025,-0.023,0.055,-0.046,0.084,-0.065c0.029,-0.021,0.063,-0.039,0.097,-0.054s0.071,-0.026,0.109,-0.036c0.038,-0.008,0.079,-0.013,0.121,-0.013c0.063,0,0.119,0.009,0.169,0.026c0.051,0.018,0.094,0.043,0.129,0.076c0.035,0.032,0.063,0.072,0.082,0.119c0.019,0.048,0.028,0.101,0.028,0.16c0,0.056,-0.009,0.108,-0.026,0.158c-0.017,0.05,-0.041,0.1,-0.07,0.148c-0.031,0.048,-0.066,0.097,-0.109,0.146c-0.041,0.049,-0.087,0.1,-0.136,0.152L-12.32,5.37l0,0.008l0.673,0L-11.647,5.54z" fill="#787878"/>
         </g>
        </g>
       </g>
      </g>
     </g>
     <g id="connector1pin">
      <path d="M9.9,7.766c-0.193,0,-0.35,-0.157,-0.35,-0.35l0,-7.2c0,-0.193,0.156,-0.35,0.35,-0.35s0.35,0.157,0.35,0.35l0,7.2C10.249,7.609,10.093,7.766,9.9,7.766z" fill="#787878"/>
     </g>
     <g id="connector1terminal">
      <polygon fill="none" points="9.9,0.216,9.901,0.216,9.901,0.216"/>
     </g>
     <g transform="matrix(1, 0, 0, 1, 3.429, 1.3462)">
      <g>
       <g transform="rotate(270)">
        <g>
         <g enable-background="new    ">
          <path d="M-2.616,5.54l-0.172,0L-2.788,4.648c0,-0.028,0,-0.058,0,-0.09s0.001,-0.063,0.002,-0.095c0.001,-0.032,0.002,-0.063,0.003,-0.092c0.001,-0.028,0.002,-0.054,0.002,-0.076c-0.011,0.012,-0.021,0.021,-0.029,0.03s-0.017,0.017,-0.026,0.024s-0.018,0.016,-0.028,0.025c-0.01,0.008,-0.021,0.019,-0.035,0.03l-0.145,0.118l-0.094,-0.12l0.374,-0.292l0.146,0L-2.618,5.54z" fill="#787878"/>
         </g>
        </g>
       </g>
      </g>
     </g>
     <g>
      <path d="M0.18,13.536l1.08,-2.521l1.44,1.438L0.18,13.536z"/>
     </g>
     <g>
      <path d="M0.54,16.776l1.08,-2.521l1.438,1.438L0.54,16.776z"/>
     </g>
    </g>
   </g>
  </g>
 </g>
 <g partID="103400">
  <g transform="translate(215.784,113.734)">
   <g transform="matrix(0,1,1,0,0,0)">
    <g id="schematic">
     <g>
      <path d="M13.5,14.966L9.9,14.966c-0.193,0,-0.35,-0.156,-0.35,-0.35s0.156,-0.35,0.35,-0.35L13.5,14.266c0.193,0,0.35,0.156,0.35,0.35S13.694,14.966,13.5,14.966z"/>
     </g>
     <g>
      <path d="M9.9,14.966L6.3,14.966c-0.193,0,-0.35,-0.156,-0.35,-0.35s0.157,-0.35,0.35,-0.35l3.6,0c0.193,0,0.35,0.156,0.35,0.35S10.093,14.966,9.9,14.966z"/>
     </g>
     <g>
      <polygon fill="#FFFFFF" points="9.9,14.616,6.3,7.416,9.9,7.416,13.5,7.416"/>
      <path d="M9.9,15.398L5.734,7.066l8.333,0L9.9,15.398zM6.866,7.766L9.9,13.834l3.034,-6.068L6.866,7.766z"/>
     </g>
     <g>
      <path d="M9.9,14.841c-0.124,0,-0.225,-0.101,-0.225,-0.225l0,-7.2c0,-0.124,0.101,-0.225,0.225,-0.225s0.225,0.101,0.225,0.225l0,7.2C10.124,14.74,10.024,14.841,9.9,14.841z"/>
     </g>
     <g>
      <path d="M1.8,12.141c-0.058,0,-0.115,-0.021,-0.159,-0.065c-0.088,-0.088,-0.088,-0.23,0,-0.318l2.34,-2.341c0.088,-0.088,0.23,-0.088,0.318,0s0.088,0.23,0,0.318l-2.34,2.341C1.915,12.12,1.858,12.141,1.8,12.141z"/>
     </g>
     <g>
      <path d="M2.16,15.381c-0.058,0,-0.115,-0.021,-0.159,-0.065c-0.088,-0.088,-0.088,-0.23,0,-0.318l2.34,-2.34c0.088,-0.088,0.23,-0.088,0.318,0s0.088,0.23,0,0.318l-2.34,2.34C2.276,15.359,2.218,15.381,2.16,15.381z"/>
     </g>
     <g id="connector0pin">
      <path d="M9.9,22.166c-0.193,0,-0.35,-0.156,-0.35,-0.35l0,-7.2c0,-0.193,0.156,-0.35,0.35,-0.35s0.35,0.156,0.35,0.35l0,7.2C10.249,22.01,10.093,22.166,9.9,22.166z" fill="#787878"/>
     </g>
     <g id="connector0terminal">
      <rect fill="none" height="0.001" width="0.001" x="9.9" y="21.816"/>
     </g>
     <g transform="matrix(1, 0, 0, 1, 3.429, 6.4262)">
      <g>
       <g transform="rotate(270)">
        <g>
         <g enable-background="new    ">
          <path d="M-11.647,5.54l-0.891,0L-12.538,5.388l0.342,-0.372c0.049,-0.053,0.093,-0.101,0.131,-0.145s0.071,-0.086,0.099,-0.128c0.026,-0.042,0.047,-0.084,0.062,-0.125c0.015,-0.043,0.021,-0.088,0.021,-0.138c0,-0.038,-0.005,-0.072,-0.017,-0.102s-0.027,-0.054,-0.047,-0.075c-0.021,-0.02,-0.045,-0.035,-0.073,-0.046s-0.06,-0.016,-0.094,-0.016c-0.062,0,-0.118,0.013,-0.167,0.038c-0.051,0.024,-0.098,0.057,-0.143,0.096l-0.1,-0.116c0.025,-0.023,0.055,-0.046,0.084,-0.065c0.029,-0.021,0.063,-0.039,0.097,-0.054s0.071,-0.026,0.109,-0.036c0.038,-0.008,0.079,-0.013,0.121,-0.013c0.063,0,0.119,0.009,0.169,0.026c0.051,0.018,0.094,0.043,0.129,0.076c0.035,0.032,0.063,0.072,0.082,0.119c0.019,0.048,0.028,0.101,0.028,0.16c0,0.056,-0.009,0.108,-0.026,0.158c-0.017,0.05,-0.041,0.1,-0.07,0.148c-0.031,0.048,-0.066,0.097,-0.109,0.146c-0.041,0.049,-0.087,0.1,-0.136,0.152L-12.32,5.37l0,0.008l0.673,0L-11.647,5.54z" fill="#787878"/>
         </g>
        </g>
       </g>
      </g>
     </g>
     <g id="connector1pin">
      <path d="M9.9,7.766c-0.193,0,-0.35,-0.157,-0.35,-0.35l0,-7.2c0,-0.193,0.156,-0.35,0.35,-0.35s0.35,0.157,0.35,0.35l0,7.2C10.249,7.609,10.093,7.766,9.9,7.766z" fill="#787878"/>
     </g>
     <g id="connector1terminal">
      <polygon fill="none" points="9.9,0.216,9.901,0.216,9.901,0.216"/>
     </g>
     <g transform="matrix(1, 0, 0, 1, 3.429, 1.3462)">
      <g>
       <g transform="rotate(270)">
        <g>
         <g enable-background="new    ">
          <path d="M-2.616,5.54l-0.172,0L-2.788,4.648c0,-0.028,0,-0.058,0,-0.09s0.001,-0.063,0.002,-0.095c0.001,-0.032,0.002,-0.063,0.003,-0.092c0.001,-0.028,0.002,-0.054,0.002,-0.076c-0.011,0.012,-0.021,0.021,-0.029,0.03s-0.017,0.017,-0.026,0.024s-0.018,0.016,-0.028,0.025c-0.01,0.008,-0.021,0.019,-0.035,0.03l-0.145,0.118l-0.094,-0.12l0.374,-0.292l0.146,0L-2.618,5.54z" fill="#787878"/>
         </g>
        </g>
       </g>
      </g>
     </g>
     <g>
      <path d="M0.18,13.536l1.08,-2.521l1.44,1.438L0.18,13.536z"/>
     </g>
     <g>
      <path d="M0.54,16.776l1.08,-2.521l1.438,1.438L0.54,16.776z"/>
     </g>
    </g>
   </g>
  </g>
 </g>
 <g partID="104060">
  <g transform="translate(79.2,15.6345)">
   <g transform="matrix(0,1,-1,0,0,0)">
    <g id="schematic" >
     <rect class="interior rect" fill="#FFFFFF" height="78.3" stroke="#000000" stroke-linecap="round" stroke-width="0.9" width="63.9" x="14.85"  y="0.45"/>
     <g font-family="'Droid Sans'" stroke="none" stroke-linecap="round" stroke-width="0" >
      <g fill="none" font-size="3.49999" id="pins" >
       <g id="pins-left" text-anchor="start" >
        <line id="connector0pin" stroke="#787878" stroke-width="0.699999" x1="0.349999" x2="14.75"  y1="14.4" y2="14.4"/>
        <text fill="#8c8c8c" x="16.15"  y="15.0999">RST</text>
        <g height="0.699999" id="connector0terminal" width="0.699999" x="-0.349999"  y="14.0499"/>
        <line id="connector1pin" stroke="#787878" stroke-width="0.699999" x1="0.349999" x2="14.75"  y1="21.6" y2="21.6"/>
        <text fill="#8c8c8c" x="16.15"  y="22.2999">A0</text>
        <g height="0.699999" id="connector1terminal" width="0.699999" x="-0.349999"  y="21.2499"/>
        <line id="connector2pin" stroke="#787878" stroke-width="0.699999" x1="0.349999" x2="14.75"  y1="28.8" y2="28.8"/>
        <text fill="#8c8c8c" x="16.15"  y="29.4999">D0</text>
        <g height="0.699999" id="connector2terminal" width="0.699999" x="-0.349999"  y="28.4499"/>
        <line id="connector3pin" stroke="#787878" stroke-width="0.699999" x1="0.349999" x2="14.75"  y1="36" y2="36"/>
        <text fill="#8c8c8c" x="16.15"  y="36.6999">D5</text>
        <g height="0.699999" id="connector3terminal" width="0.699999" x="-0.349999"  y="35.6499"/>
        <line id="connector4pin" stroke="#787878" stroke-width="0.699999" x1="0.349999" x2="14.75"  y1="43.2" y2="43.2"/>
        <text fill="#8c8c8c" x="16.15"  y="43.8999">D6</text>
        <g height="0.699999" id="connector4terminal" width="0.699999" x="-0.349999"  y="42.8499"/>
        <line id="connector5pin" stroke="#787878" stroke-width="0.699999" x1="0.349999" x2="14.75"  y1="50.4" y2="50.4"/>
        <text fill="#8c8c8c" x="16.15"  y="51.0999">D7</text>
        <g height="0.699999" id="connector5terminal" width="0.699999" x="-0.349999"  y="50.0499"/>
        <line id="connector6pin" stroke="#787878" stroke-width="0.699999" x1="0.349999" x2="14.75"  y1="57.6" y2="57.6"/>
        <text fill="#8c8c8c" x="16.15"  y="58.2999">D8</text>
        <g height="0.699999" id="connector6terminal" width="0.699999" x="-0.349999"  y="57.2499"/>
        <line id="connector7pin" stroke="#787878" stroke-width="0.699999" x1="0.349999" x2="14.75"  y1="64.8" y2="64.8"/>
        <text fill="#8c8c8c" x="16.15"  y="65.4999">3V3</text>
        <g height="0.699999" id="connector7terminal" width="0.699999" x="-0.349999"  y="64.4499"/>
       </g>
       <g id="right" text-anchor="end" >
        <line id="connector8pin" stroke="#787878" stroke-width="0.699999" x1="78.8499" x2="93.2499"  y1="64.8" y2="64.8"/>
        <text fill="#8c8c8c" x="77.4499"  y="65.4999">5V</text>
        <g height="0.699999" id="connector8terminal" width="0.699999" x="93.2499"  y="64.4499"/>
        <line id="connector9pin" stroke="#787878" stroke-width="0.699999" x1="78.8499" x2="93.2499"  y1="57.6" y2="57.6"/>
        <text fill="#8c8c8c" x="77.4499"  y="58.2999">G</text>
        <g height="0.699999" id="connector9terminal" width="0.699999" x="93.2499"  y="57.2499"/>
        <line id="connector10pin" stroke="#787878" stroke-width="0.699999" x1="78.8499" x2="93.2499"  y1="50.4" y2="50.4"/>
        <text fill="#8c8c8c" x="77.4499"  y="51.0999">D4</text>
        <g height="0.699999" id="connector10terminal" width="0.699999" x="93.2499"  y="50.0499"/>
        <line id="connector11pin" stroke="#787878" stroke-width="0.699999" x1="78.8499" x2="93.2499"  y1="43.2" y2="43.2"/>
        <text fill="#8c8c8c" x="77.4499"  y="43.8999">D3</text>
        <g height="0.699999" id="connector11terminal" width="0.699999" x="93.2499"  y="42.8499"/>
        <line id="connector12pin" stroke="#787878" stroke-width="0.699999" x1="78.8499" x2="93.2499"  y1="36" y2="36"/>
        <text fill="#8c8c8c" x="77.4499"  y="36.6999">D2</text>
        <g height="0.699999" id="connector12terminal" width="0.699999" x="93.2499"  y="35.6499"/>
        <line id="connector13pin" stroke="#787878" stroke-width="0.699999" x1="78.8499" x2="93.2499"  y1="28.8" y2="28.8"/>
        <text fill="#8c8c8c" x="77.4499"  y="29.4999">D1</text>
        <g height="0.699999" id="connector13terminal" width="0.699999" x="93.2499"  y="28.4499"/>
        <line id="connector14pin" stroke="#787878" stroke-width="0.699999" x1="78.8499" x2="93.2499"  y1="21.6" y2="21.6"/>
        <text fill="#8c8c8c" x="77.4499"  y="22.2999">RX</text>
        <g height="0.699999" id="connector14terminal" width="0.699999" x="93.2499"  y="21.2499"/>
        <line id="connector15pin" stroke="#787878" stroke-width="0.699999" x1="78.8499" x2="93.2499"  y1="14.4" y2="14.4"/>
        <text fill="#8c8c8c" x="77.4499"  y="15.0999">TX</text>
        <g height="0.699999" id="connector15terminal" width="0.699999" x="93.2499"  y="14.0499"/>
       </g>
      </g>
      <text fill="#000000" font-size="4.25001" id="label" text-anchor="middle" x="46.8283"  y="39.685">WeMos D1 mini</text>
     </g>
    </g>
   </g>
  </g>
 </g>
 <g partID="106160">
  <line stroke="#404040" stroke-linecap="round" stroke-width="0.699998" x1="208.888" x2="14.5808" y1="138.126" y2="138.126"/>
 </g>
 <circle cx="208.888" cy="138.126" fill="black" r="1.44" stroke="none" stroke-width="0"/>
 <circle cx="14.5808" cy="138.126" fill="black" r="0.72" stroke="none" stroke-width="0"/>
 <g partID="105770">
  <line stroke="#404040" stroke-linecap="round" stroke-width="0.699998" x1="14.58" x2="14.3998" y1="138.126" y2="109.234"/>
 </g>
 <circle cx="14.58" cy="138.126" fill="black" r="0.72" stroke="none" stroke-width="0"/>
 <g partID="105700">
  <line stroke="#404040" stroke-linecap="round" stroke-width="0.699998" x1="273.6" x2="208.888" y1="138.034" y2="138.126"/>
 </g>
 <circle cx="208.888" cy="138.126" fill="black" r="0.72" stroke="none" stroke-width="0"/>
 <g partID="107620">
  <line stroke="#404040" stroke-linecap="round" stroke-width="0.699998" x1="244.8" x2="201.597" y1="152.434" y2="152.344"/>
 </g>
 <circle cx="244.8" cy="152.434" fill="black" r="1.44" stroke="none" stroke-width="0"/>
 <circle cx="201.597" cy="152.344" fill="black" r="0.72" stroke="none" stroke-width="0"/>
 <g partID="107080">
  <line stroke="#404040" stroke-linecap="round" stroke-width="0.699998" x1="151.2" x2="21.5064" y1="152.434" y2="152.344"/>
 </g>
 <circle cx="151.2" cy="152.434" fill="black" r="1.44" stroke="none" stroke-width="0"/>
 <circle cx="21.5064" cy="152.344" fill="black" r="0.72" stroke="none" stroke-width="0"/>
 <g partID="106330">
  <line stroke="#404040" stroke-linecap="round" stroke-width="0.699998" x1="201.597" x2="151.2" y1="152.344" y2="152.434"/>
 </g>
 <circle cx="201.597" cy="152.344" fill="black" r="1.44" stroke="none" stroke-width="0"/>
 <circle cx="151.2" cy="152.434" fill="black" r="0.72" stroke="none" stroke-width="0"/>
 <g partID="105950">
  <line stroke="#404040" stroke-linecap="round" stroke-width="0.699998" x1="21.5064" x2="21.5996" y1="152.344" y2="109.234"/>
 </g>
 <circle cx="21.5064" cy="152.344" fill="black" r="0.72" stroke="none" stroke-width="0"/>
 <g partID="105880">
  <line stroke="#404040" stroke-linecap="round" stroke-width="0.699998" x1="273.6" x2="244.8" y1="152.434" y2="152.435"/>
 </g>
 <circle cx="244.8" cy="152.435" fill="black" r="0.72" stroke="none" stroke-width="0"/>
 <g partID="106090">
  <line stroke="#404040" stroke-linecap="round" stroke-width="0.699998" x1="28.7976" x2="28.7998" y1="145.053" y2="109.234"/>
 </g>
 <circle cx="28.7976" cy="145.053" fill="black" r="0.72" stroke="none" stroke-width="0"/>
 <g partID="106020">
  <line stroke="#404040" stroke-linecap="round" stroke-width="0.699998" x1="273.6" x2="28.7976" y1="145.234" y2="145.053"/>
 </g>
 <circle cx="28.7976" cy="145.053" fill="black" r="0.72" stroke="none" stroke-width="0"/>
 <g partID="106220">
  <line stroke="#404040" stroke-linecap="round" stroke-width="0.699998" x1="208.888" x2="208.8" y1="138.126" y2="166.834"/>
 </g>
 <circle cx="208.888" cy="138.126" fill="black" r="0.72" stroke="none" stroke-width="0"/>
 <g partID="106390">
  <line stroke="#404040" stroke-linecap="round" stroke-width="0.699998" x1="201.597" x2="201.6" y1="152.344" y2="166.834"/>
 </g>
 <circle cx="201.597" cy="152.344" fill="black" r="0.72" stroke="none" stroke-width="0"/>
 <g partID="106630">
  <line stroke="#404040" stroke-linecap="round" stroke-width="0.699998" x1="21.5064" x2="21.5996" y1="1.05368" y2="15.6346"/>
 </g>
 <circle cx="21.5064" cy="1.05368" fill="black" r="0.72" stroke="none" stroke-width="0"/>
 <g partID="106570">
  <line stroke="#404040" stroke-linecap="round" stroke-width="0.699998" x1="194.306" x2="21.5072" y1="1.05368" y2="1.05368"/>
 </g>
 <circle cx="194.306" cy="1.05368" fill="black" r="0.72" stroke="none" stroke-width="0"/>
 <circle cx="21.5072" cy="1.05368" fill="black" r="0.72" stroke="none" stroke-width="0"/>
 <g partID="106500">
  <line stroke="#404040" stroke-linecap="round" stroke-width="0.699998" x1="194.4" x2="194.305" y1="166.834" y2="1.05368"/>
 </g>
 <circle cx="194.305" cy="1.05368" fill="black" r="0.72" stroke="none" stroke-width="0"/>
 <g partID="106820">
  <line stroke="#404040" stroke-linecap="round" stroke-width="0.699998" x1="28.7976" x2="187.378" y1="8.34488" y2="8.34488"/>
 </g>
 <circle cx="28.7976" cy="8.34488" fill="black" r="0.72" stroke="none" stroke-width="0"/>
 <circle cx="187.378" cy="8.34488" fill="black" r="0.72" stroke="none" stroke-width="0"/>
 <g partID="106760">
  <line stroke="#404040" stroke-linecap="round" stroke-width="0.699998" x1="187.379" x2="187.186" y1="8.34488" y2="166.834"/>
 </g>
 <circle cx="187.379" cy="8.34488" fill="black" r="0.72" stroke="none" stroke-width="0"/>
 <g partID="106690">
  <line stroke="#404040" stroke-linecap="round" stroke-width="0.699998" x1="28.8" x2="28.7978" y1="15.6345" y2="8.34461"/>
 </g>
 <circle cx="28.7978" cy="8.34461" fill="black" r="0.72" stroke="none" stroke-width="0"/>
 <g partID="107020">
  <line stroke="#404040" stroke-linecap="round" stroke-width="0.699998" x1="36.0888" x2="36.0001" y1="116.253" y2="109.234"/>
 </g>
 <circle cx="36.0888" cy="116.253" fill="black" r="0.72" stroke="none" stroke-width="0"/>
 <g partID="106950">
  <line stroke="#404040" stroke-linecap="round" stroke-width="0.699998" x1="122.401" x2="36.0888" y1="116.434" y2="116.253"/>
 </g>
 <circle cx="36.0888" cy="116.253" fill="black" r="0.72" stroke="none" stroke-width="0"/>
 <g partID="107330">
  <line stroke="#404040" stroke-linecap="round" stroke-width="0.699998" x1="151.288" x2="151.174" y1="116.253" y2="116.392"/>
 </g>
 <circle cx="151.288" cy="116.253" fill="black" r="1.44" stroke="none" stroke-width="0"/>
 <g partID="107180">
  <line stroke="#404040" stroke-linecap="round" stroke-width="0.699998" x1="151.2" x2="151.288" y1="152.434" y2="116.253"/>
 </g>
 <circle cx="151.2" cy="152.434" fill="black" r="0.72" stroke="none" stroke-width="0"/>
 <circle cx="151.288" cy="116.253" fill="black" r="0.72" stroke="none" stroke-width="0"/>
 <g partID="107550">
  <line stroke="#404040" stroke-linecap="round" stroke-width="0.699998" x1="43.38" x2="43.2001" y1="123.544" y2="109.234"/>
 </g>
 <circle cx="43.38" cy="123.544" fill="black" r="0.72" stroke="none" stroke-width="0"/>
 <g partID="107480">
  <line stroke="#404040" stroke-linecap="round" stroke-width="0.699998" x1="216" x2="43.38" y1="123.634" y2="123.544"/>
 </g>
 <circle cx="43.38" cy="123.544" fill="black" r="0.72" stroke="none" stroke-width="0"/>
 <g partID="107950">
  <line stroke="#404040" stroke-linecap="round" stroke-width="0.699998" x1="244.829" x2="244.829" y1="123.596" y2="123.596"/>
 </g>
 <circle cx="244.829" cy="123.596" fill="black" r="0.72" stroke="none" stroke-width="0"/>
 <g partID="107760">
  <line stroke="#404040" stroke-linecap="round" stroke-width="0.699998" x1="244.8" x2="244.829" y1="152.434" y2="123.596"/>
 </g>
 <circle cx="244.8" cy="152.434" fill="black" r="0.72" stroke="none" stroke-width="0"/>
 <circle cx="244.829" cy="123.596" fill="black" r="1.44" stroke="none" stroke-width="0"/>
 <g partID="108910">
  <line stroke="#404040" stroke-linecap="round" stroke-width="0.699998" x1="151.288" x2="144.002" y1="116.253" y2="116.434"/>
 </g>
 <circle cx="151.288" cy="116.253" fill="black" r="0.72" stroke="none" stroke-width="0"/>
 <g partID="109280">
  <line stroke="#404040" stroke-linecap="round" stroke-width="0.699998" x1="244.829" x2="237.6" y1="123.596" y2="123.634"/>
 </g>
 <circle cx="244.829" cy="123.596" fill="black" r="0.72" stroke="none" stroke-width="0"/>
 <g id="partLabel" partID="98860">
  <g transform="translate(208.889,153.931)">
   <g fill="#000000" fill-opacity="1" font-family="'DroidSans'" font-size="5.000" font-style="normal" font-weight="normal" id="schematicLabel" stroke="none">
    <text x="0" y="5.000">MPU6050</text>
   </g>
  </g>
 </g>
 <g id="partLabel" partID="99310">
  <g transform="translate(320.531,118.034)">
   <g fill="#000000" fill-opacity="1" font-family="'DroidSans'" font-size="5.000" font-style="normal" font-weight="normal" id="schematicLabel" stroke="none">
    <text x="0" y="5.000">Servo SG90</text>
   </g>
  </g>
 </g>
 <g id="partLabel" partID="103370">
  <g transform="translate(140.041,91.1585)">
   <g fill="#000000" fill-opacity="1" font-family="'DroidSans'" font-size="5.000" font-style="normal" font-weight="normal" id="schematicLabel" stroke="none">
    <text x="0" y="5.000">Calibration LED</text>
    <text x="0" y="10.000">Green (560nm)</text>
   </g>
  </g>
 </g>
 <g id="partLabel" partID="103400">
  <g transform="translate(233.639,98.3585)">
   <g fill="#000000" fill-opacity="1" font-family="'DroidSans'" font-size="5.000" font-style="normal" font-weight="normal" id="schematicLabel" stroke="none">
    <text x="0" y="5.000">Error LED</text>
    <text x="0" y="10.000">Red (633nm)</text>
   </g>
  </g>
 </g>
 <g id="partLabel" partID="104060">
  <g transform="translate(86.4,17.2345)">
   <g fill="#000000" fill-opacity="1" font-family="'DroidSans'" font-size="5.000" font-style="normal" font-weight="normal" id="schematicLabel" stroke="none">
    <text x="0" y="5.000">WeMos ESP32C3</text>
   </g>
  </g>
 </g>
</svg>
